<?xml version="1.0" encoding="UTF-8"?>
<svg width="20px" height="20px" viewBox="0 0 20 20" version="1.1" xmlns="http://www.w3.org/2000/svg" xmlns:xlink="http://www.w3.org/1999/xlink">
    <!-- Generator: Sketch 51.3 (57544) - http://www.bohemiancoding.com/sketch -->
    <title>Icon</title>
    <desc>Created with Sketch.</desc>
    <defs></defs>
    <g id="Search-case" stroke="none" stroke-width="1" fill="none" fill-rule="evenodd">
        <g id="Timeline-(search-open)" transform="translate(-1300.000000, -65.000000)" fill="#FFFFFF">
            <g id="Primary-navigation" transform="translate(0.000000, 50.000000)">
                <g id="Search-toggle" transform="translate(1186.000000, 5.000000)">
                    <g transform="translate(104.000000, 0.000000)" id="Icon">
                        <path d="M17.4328188,22.5786164 C14.5854774,22.5786164 12.2870212,20.2801601 12.2870212,17.4328188 C12.2870212,14.5854774 14.5854774,12.2870212 17.4328188,12.2870212 C20.2801601,12.2870212 22.5786164,14.5854774 22.5786164,17.4328188 C22.5786164,20.2801601 20.2801601,22.5786164 17.4328188,22.5786164 Z M24.2938822,22.5786164 L23.3905089,22.5786164 L23.0703259,22.2698685 C24.1909663,20.9668382 24.8656375,19.2738708 24.8656375,17.4328188 C24.8656375,13.3276158 21.5385935,10 17.4328188,10 C13.3276158,10 10,13.3276158 10,17.4328188 C10,21.5385935 13.3276158,24.8656375 17.4328188,24.8656375 C19.2738708,24.8656375 20.9668382,24.1909663 22.2698685,23.0703259 L22.5786164,23.3905089 L22.5786164,24.2938822 L28.2961692,30 L30,28.2961692 L24.2938822,22.5786164 Z"></path>
                    </g>
                </g>
            </g>
        </g>
    </g>
</svg>